<svg xmlns="http://www.w3.org/2000/svg" viewBox="0 0 2112 529.12"><path d="M2608.31 1258.98h-237.09v-.17l-88.93-84.16v295.61c0 4.42-2.47 8.48-6.36 10.61-23.52 12.19-38.01 36.06-38.01 62.58l-.18 1147.25c1.41 25.28 20.33 46.14 45.26 49.5 6.01.89 10.43 6.01 10.43 12.02v119.52c0 6.72-5.48 12.02-12.02 12.02h-86.28c-33.06 190.94-132.07 366.15-279.17 493.8-153.63 133.66-350.76 207.21-554.61 207.21s-400.803-73.55-554.62-207.21c-146.917-127.65-246.101-302.86-279.164-493.8h-86.277c-6.543 0-12.023-5.3-12.023-12.02v-119.52c0-6.01 4.422-11.13 10.433-12.02 25.637-3.53 45.082-25.81 45.082-51.8V1543.45c0-26.52-14.676-50.39-38.011-62.58-3.891-1.95-6.364-6.19-6.364-10.61v-211.28H123.227v2586.04H2608.31ZM678.199 2740.2h563.461c25.81-3.36 45.26-25.63 45.26-51.8V1543.45c0-26.52-14.5-50.39-37.84-62.58-3.89-1.95-6.36-6.19-6.36-10.61v-211.28H766.598l-88.754-84.33v295.43c0 4.6-2.653 8.66-6.539 10.79-23.516 12.19-38.012 36.06-38.012 62.58V2690.7c1.238 25.46 20.152 46.32 44.906 49.5m-25.812 143.56c31.468 154.88 114.742 297.2 234.609 401.33 131.544 114.21 300.034 177.16 474.354 177.16s342.81-62.95 474.35-177.16c119.87-104.13 203.14-246.45 234.79-401.33zm821.223-1402.89c-23.51 12.19-38.01 36.06-38.01 62.58V2690.7c1.24 25.46 20.16 46.32 44.73 49.5h563.64c25.81-3.36 45.26-25.63 45.26-51.8V1543.45c0-26.52-14.5-50.39-37.84-62.58-3.89-1.95-6.36-6.19-6.36-10.61v-211.28h-476.12l-88.75-84.33v295.43c0 4.6-2.65 8.66-6.55 10.79m1134.7-421.49c0-270.86-205.97-472.759-378.7-594.22-225.42-158.769-539.24-282.168-863.84-339.988-324.43 57.82-638.247 181.219-863.84 339.988-172.731 121.461-378.703 323.36-378.703 594.22v65.77h317.179V891.422c0-6.543 5.301-12.024 12.02-12.024h213.398c6.539 0 12.02 5.481 12.02 12.024v233.728h564.876V891.422c0-6.543 5.3-12.024 12.02-12.024h213.22c6.72 0 12.2 5.481 12.2 12.024v233.728h564.87V891.422c0-6.543 5.3-12.024 12.02-12.024h213.22c6.72 0 12.02 5.481 12.02 12.024v233.728h326.02zM0 3968.42V1059.38C0 504.41 694.109 113.859 1365.77 0c671.66 113.859 1365.77 504.41 1365.77 1059.38v2909.04z" style="fill:#fff;fill-opacity:1;fill-rule:nonzero;stroke:none" transform="matrix(.13333 0 0 -.13333 0 529.12)"/><path d="M2070.49 2883.76H652.387c31.468 154.88 114.742 297.2 234.609 401.33 131.544 114.21 300.034 177.16 474.354 177.16s342.81-62.95 474.35-177.16c119.87-104.13 203.14-246.45 234.79-401.33m-783.57-195.36V1543.45c0-26.52-14.5-50.39-37.84-62.58-3.89-1.95-6.36-6.19-6.36-10.61v-211.28H766.598l-88.754-84.33v295.43c0 4.6-2.653 8.66-6.539 10.79-23.516 12.19-38.012 36.06-38.012 62.58V2690.7c1.238 25.46 20.152 46.32 44.906 49.5h563.461c25.81-3.36 45.26-25.63 45.26-51.8m802.31 0V1543.45c0-26.52-14.5-50.39-37.84-62.58-3.89-1.95-6.36-6.19-6.36-10.61v-211.28h-476.12l-88.75-84.33v295.43c0 4.6-2.65 8.66-6.55 10.79-23.51 12.19-38.01 36.06-38.01 62.58V2690.7c1.24 25.46 20.16 46.32 44.73 49.5h563.64c25.81-3.36 45.26-25.63 45.26-51.8" style="fill:#100f0d;fill-opacity:1;fill-rule:nonzero;stroke:none" transform="matrix(.13333 0 0 -.13333 0 529.12)"/><path d="M1780.71 416.191c-65.59 0-104.84 22.618-104.84 60.809 0 21.93 15.21 36.602 37.84 36.602 23.34 0 33.94-17.864 33.94-35.364 0-14.668-9.9-27.398-19.8-32.347l-2.12-1.059 1.94-1.602c6.02-4.589 24.58-9.191 37.31-9.191 36.77 0 55.34 22.102 55.34 65.59 0 39.082-20.33 61.531-55.69 61.531-23.52 0-39.43-6.012-58.52-16.441l-13.09 10.429 5.48 131.891h174.68l-4.07-53.75h-145.86l-3-62.047-.18-2.652 2.3 1.058c19.8 9.012 38.54 12.731 62.76 12.731 48.8 0 100.96-20.688 100.96-78.859 0-42.071-32.89-87.329-105.38-87.329m-289.77-.89c-71.43 0-112.27 24.578-112.27 67.711 0 26.519 17.51 46.859 52.16 60.648l2.83 1.059-2.65 1.59c-29.35 16.972-44.2 38.722-44.2 64.882 0 50.391 40.48 82.739 103.25 82.739 67.36 0 98.12-32.879 98.12-63.469 0-24.219-17.68-43.129-52.51-56.219l-3.53-1.41 3.53-1.422c41.02-17.68 61-41.539 61-73.012 0-47.386-45.44-83.097-105.73-83.097m-174.68 243.808-74.6-132.25-53.93-108.199h-55.16v14.672l142.15 195.367 1.77 2.473h-95.83c-38.19 0-46.67-9.192-54.28-41.024h-15.2l2.47 96.891h202.61zm-280.75-236.558H868.434v16.258c32.531 1.242 47.914 4.601 47.914 20.16v169.023c0 12.727-2.301 20.508-7.957 25.988-6.895 6.719-19.094 9.719-39.075 9.719h-3.003v15.742l120.929 8.481V458.969c0-15.559 15.558-18.918 48.268-20.16zm1246.78 702.599V891.422c0-6.543-5.3-12.024-12.02-12.024h-213.22c-6.72 0-12.02 5.481-12.02 12.024v233.728h-564.87V891.422c0-6.543-5.48-12.024-12.2-12.024h-213.22c-6.72 0-12.02 5.481-12.02 12.024v233.728H677.844V891.422c0-6.543-5.481-12.024-12.02-12.024H452.426c-6.719 0-12.02 5.481-12.02 12.024v233.728H123.227v-65.77c0-270.86 205.972-472.759 378.703-594.22 225.593-158.769 539.41-282.168 863.84-339.988 324.6 57.82 638.42 181.219 863.84 339.988 172.73 121.461 378.7 323.36 378.7 594.22v65.77z" style="fill:#c21b32;fill-opacity:1;fill-rule:nonzero;stroke:none" transform="matrix(.13333 0 0 -.13333 0 529.12)"/><path d="M2608.31 3845.02V1258.98h-237.09v-.17l-88.93-84.16v295.61c0 4.42-2.47 8.48-6.36 10.61-23.52 12.19-38.01 36.06-38.01 62.58l-.18 1147.25c1.41 25.28 20.33 46.14 45.26 49.5 6.01.89 10.43 6.01 10.43 12.02v119.52c0 6.72-5.48 12.02-12.02 12.02h-86.28c-33.06 190.94-132.07 366.15-279.17 493.8-153.63 133.66-350.76 207.21-554.61 207.21s-400.803-73.55-554.62-207.21c-146.917-127.65-246.101-302.86-279.164-493.8h-86.277c-6.543 0-12.023-5.3-12.023-12.02v-119.52c0-6.01 4.422-11.13 10.433-12.02 25.637-3.53 45.082-25.81 45.082-51.8V1543.45c0-26.52-14.676-50.39-38.011-62.58-3.891-1.95-6.364-6.19-6.364-10.61v-211.28H123.227v2586.04z" style="fill:#100f0d;fill-opacity:1;fill-rule:nonzero;stroke:none" transform="matrix(.13333 0 0 -.13333 0 529.12)"/><path d="M1035.51 438.809v-16.258H868.434v16.258c32.531 1.242 47.914 4.601 47.914 20.16v169.023c0 12.727-2.301 20.508-7.957 25.988-6.895 6.719-19.094 9.719-39.075 9.719h-3.003v15.742l120.929 8.481V458.969c0-15.559 15.558-18.918 48.268-20.16m280.75 248.23v-27.93l-74.6-132.25-53.93-108.199h-55.16v14.672l142.15 195.367 1.77 2.473h-95.83c-38.19 0-46.67-9.192-54.28-41.024h-15.2l2.47 96.891zm174.15-253.879c-35 0-56.57 28.82-56.57 55.34 0 17.68 5.83 32.172 18.74 45.961l.7.891 1.06-.532c4.07-1.769 9.02-3.539 14.33-4.949 50.38-16.801 68.24-31.121 68.24-54.992 0-25.277-18.21-41.719-46.5-41.719m-6.36 242.922c31.11 0 51.09-17.863 51.09-45.621 0-19.441-6.01-34.473-19.98-50.211l-.7-.699-1.07.347c-34.82 12.731-68.95 27.934-68.95 59.231 0 24.223 19.98 36.953 39.61 36.953m51.62-104.672-3.53 1.422 3.53 1.41c34.83 13.09 52.51 32 52.51 56.219 0 30.59-30.76 63.469-98.12 63.469-62.77 0-103.25-32.348-103.25-82.739 0-26.16 14.85-47.91 44.2-64.882l2.65-1.59-2.83-1.059c-34.65-13.789-52.16-34.129-52.16-60.648 0-43.133 40.84-67.711 112.27-67.711 60.29 0 105.73 35.711 105.73 83.097 0 31.473-19.98 55.332-61 73.012" style="fill:#fff;fill-opacity:1;fill-rule:nonzero;stroke:none" transform="matrix(.13333 0 0 -.13333 0 529.12)"/><path d="M1535.14 630.461c0-19.441-6.01-34.473-19.98-50.211l-.7-.699-1.07.347c-34.82 12.731-68.95 27.934-68.95 59.231 0 24.223 19.98 36.953 39.61 36.953 31.11 0 51.09-17.863 51.09-45.621m1.77-155.582c0-25.277-18.21-41.719-46.5-41.719-35 0-56.57 28.82-56.57 55.34 0 17.68 5.83 32.172 18.74 45.961l.7.891 1.06-.532c4.07-1.769 9.02-3.539 14.33-4.949 50.38-16.801 68.24-31.121 68.24-54.992" style="fill:#c21b32;fill-opacity:1;fill-rule:nonzero;stroke:none" transform="matrix(.13333 0 0 -.13333 0 529.12)"/><path d="M1886.09 503.52c0-42.071-32.89-87.329-105.38-87.329-65.59 0-104.84 22.618-104.84 60.809 0 21.93 15.21 36.602 37.84 36.602 23.34 0 33.94-17.864 33.94-35.364 0-14.668-9.9-27.398-19.8-32.347l-2.12-1.059 1.94-1.602c6.02-4.589 24.58-9.191 37.31-9.191 36.77 0 55.34 22.102 55.34 65.59 0 39.082-20.33 61.531-55.69 61.531-23.52 0-39.43-6.012-58.52-16.441l-13.09 10.429 5.48 131.891h174.68l-4.07-53.75h-145.86l-3-62.047-.18-2.652 2.3 1.058c19.8 9.012 38.54 12.731 62.76 12.731 48.8 0 100.96-20.688 100.96-78.859m582.61-205.469h6.61c7.73 0 13.99 2.578 13.99 8.84 0 5.507-4.06 9.191-12.88 9.191-3.68 0-6.26-.363-7.72-.723zm-.38-34.199h-13.97v60.32c5.53 1.098 13.24 1.848 23.18 1.848 11.39 0 16.55-1.848 20.96-4.43 3.31-2.551 5.89-7.34 5.89-13.238 0-6.622-5.15-11.77-12.52-13.954v-.75c5.9-2.218 9.21-6.617 11.04-14.707 1.84-9.191 2.95-12.871 4.41-15.089h-15.08c-1.84 2.218-2.93 7.73-4.77 14.738-1.11 6.609-4.79 9.551-12.51 9.551h-6.63zm-37.13 31.66c0-26.871 19.85-48.192 47.07-48.192 26.48 0 45.97 21.321 45.97 47.801 0 26.859-19.49 48.539-46.34 48.539s-46.7-21.68-46.7-48.148m108.5 0c0-34.231-26.85-61.071-61.8-61.071-34.58 0-62.16 26.84-62.16 61.071 0 33.449 27.58 60.308 62.16 60.308 34.95 0 61.8-26.859 61.8-60.308M3562.73 3099.34c0 224.45 166.67 390.02 384.46 390.02 70.01 0 138.89-22.23 184.45-47.79l32.23 47.79h44.44V3226h-50c-44.45 134.46-117.78 215.57-214.45 215.57-113.34 0-213.34-110-213.34-324.45 0-220.01 121.11-325.57 237.78-325.57 103.34 0 175.57 60 227.78 165.56l42.23-20c-51.11-118.89-151.11-214.45-310.01-214.45-231.11 0-365.57 157.78-365.57 376.68m1137.77-101.12c0 153.34-42.23 222.24-124.46 222.24-81.11 0-115.55-68.9-115.55-222.24 0-154.44 43.34-224.45 125.55-224.45 80.01 0 114.46 70.01 114.46 224.45m-382.24-2.22c0 161.12 102.23 267.79 263.34 267.79 165.57 0 261.12-102.23 261.12-263.34 0-162.23-101.11-271.12-261.12-271.12-167.78 0-263.34 104.45-263.34 266.67m592.2-215.56c63.33 1.11 77.77 12.22 77.77 38.89v592.24c0 33.33-16.66 53.33-82.22 54.45v40l214.45 8.89v-695.58c0-26.67 13.34-37.78 77.78-38.89v-40h-287.78zm338.87 0c63.33 1.11 77.77 12.22 77.77 38.89v592.24c0 33.33-16.66 53.33-82.23 54.45v40l214.46 8.89v-695.58c0-26.67 13.34-37.78 77.78-38.89v-40h-287.78zm489.98 262.22 197.78 3.34c11.11 95.56-20 174.46-91.11 174.46-61.12 0-98.89-58.9-106.67-177.8m-141.12-52.21c0 164.44 102.23 273.34 255.57 273.34 154.44 0 228.9-122.23 220-261.13H5738.2V2996c0-118.89 53.33-201.12 157.78-201.12 58.89 0 108.89 35.56 152.22 91.11l27.79-23.33c-46.67-75.55-111.12-133.33-222.23-133.33-164.45 0-255.57 102.22-255.57 261.12m873.33 97.78c0 82.22-33.34 130-91.12 130-55.56 0-81.11-36.67-81.11-130 0-94.45 34.45-131.12 91.11-131.12 54.45 0 81.12 36.67 81.12 131.12m84.45-437.79c0 42.22-28.89 66.67-161.12 66.67h-92.22c-46.67-13.34-74.46-35.56-74.46-74.45 0-48.89 54.46-88.89 170.01-88.89 95.56 0 157.79 40 157.79 96.67m-70 592.24c25.55 50 58.88 94.45 116.67 94.45 43.33 0 67.77-25.56 67.77-58.9 0-27.77-20-52.23-51.11-52.23-25.56 0-48.89 18.9-48.89 55.56-22.23-7.77-42.23-28.88-53.33-53.33 51.1-27.78 83.33-74.44 83.33-137.78 0-107.79-90-174.46-214.45-174.46-21.11 0-41.12 2.23-61.12 5.56-41.11-15.56-62.21-30-62.21-50 0-22.22 22.21-40 120-40h50c148.89 0 216.68-41.11 216.68-137.78 0-94.45-102.23-181.11-280.01-181.11-137.79 0-230.01 51.11-230.01 117.78 0 48.88 44.44 91.11 130 103.33v5.56c-68.89 21.11-91.12 51.11-91.12 94.45 0 41.11 31.12 73.33 93.34 102.22-61.11 25.55-102.22 74.45-102.22 150 0 106.68 91.11 173.34 216.67 173.34 35.55 0 70.01-5.55 100.01-16.66m368.83-200.02 197.79 3.34c11.11 95.56-20 174.46-91.12 174.46-61.11 0-98.88-58.9-106.67-177.8m-141.11-52.21c0 164.44 102.23 273.34 255.57 273.34 154.44 0 228.89-122.23 220-261.13H6853.7V2996c0-118.89 53.33-201.12 157.77-201.12 58.9 0 108.9 35.56 152.23 91.11l27.78-23.33c-46.67-75.55-111.11-133.33-222.22-133.33-164.46 0-255.57 102.22-255.57 261.12m1156.64 7.77c0 153.34-42.21 222.24-124.44 222.24-81.11 0-115.56-68.9-115.56-222.24 0-154.44 43.33-224.45 125.56-224.45 80 0 114.44 70.01 114.44 224.45m-382.22-2.22c0 161.12 102.21 267.79 263.34 267.79 165.55 0 261.11-102.23 261.11-263.34 0-162.23-101.11-271.12-261.11-271.12-167.79 0-263.34 104.45-263.34 266.67m601.07-215.56c63.34 1.11 77.78 12.22 77.78 38.89v368.9h-95.55v42.23l95.55 20v24.44c0 87.78 21.12 148.89 61.12 190 38.88 38.9 91.11 56.67 155.55 56.67 103.34 0 152.23-45.55 152.23-96.67 0-42.22-25.56-72.22-68.89-72.22-38.88 0-72.22 24.45-72.22 80 0 11.12 3.33 30 6.67 42.22-10 4.46-18.89 6.67-27.79 6.67-16.66 0-30-4.44-43.33-17.77-20-20-31.11-58.9-31.11-138.9v-76.67h140v-57.78h-140v-371.12c0-26.67 21.11-35.56 107.78-38.89v-40h-317.79zm1017.76 274.45-92.22 274.45h-7.79l-103.33-274.45Zm15.56-46.67h-235.57l-37.78-100c-37.77-96.67-27.77-111.11 63.34-126.67v-41.11h-254.45v41.11c72.22 16.67 93.34 50 130 144.44l218.89 556.69h100.01l222.23-618.9c17.77-50 37.78-68.9 116.67-82.23v-41.11H9073.6v41.11c100.01 5.56 117.79 26.67 98.9 81.11zm662.19 80.01c0 82.22-33.34 130-91.13 130-55.55 0-81.11-36.67-81.11-130 0-94.45 34.45-131.12 91.11-131.12 54.46 0 81.13 36.67 81.13 131.12m84.44-437.79c0 42.22-28.89 66.67-161.11 66.67h-92.23c-46.67-13.34-74.45-35.56-74.45-74.45 0-48.89 54.45-88.89 170.01-88.89 95.55 0 157.78 40 157.78 96.67m-70 592.24c25.56 50 58.89 94.45 116.67 94.45 43.33 0 67.77-25.56 67.77-58.9 0-27.77-20-52.23-51.11-52.23-25.56 0-48.89 18.9-48.89 55.56-22.22-7.77-42.22-28.88-53.33-53.33 51.11-27.78 83.33-74.44 83.33-137.78 0-107.79-90-174.46-214.45-174.46-21.1 0-41.11 2.23-61.11 5.56-41.12-15.56-62.22-30-62.22-50 0-22.22 22.22-40 120-40h50c148.9 0 216.68-41.11 216.68-137.78 0-94.45-102.23-181.11-280.01-181.11-137.78 0-230.01 51.11-230.01 117.78 0 48.88 44.44 91.11 130 103.33v5.56c-68.89 21.11-91.11 51.11-91.11 94.45 0 41.11 31.11 73.33 93.34 102.22-61.12 25.55-102.23 74.45-102.23 150 0 106.68 91.11 173.34 216.67 173.34 35.56 0 70.01-5.55 100.01-16.66m211.07-462.24c63.3 1.11 77.8 12.22 77.8 38.89v333.35c0 33.32-14.5 53.32-77.8 54.44v40l207.8 8.88v-90c38.9 50 91.1 93.34 150 93.34 63.3 0 94.4-41.11 94.4-88.89 0-46.66-30-81.11-72.2-81.11-45.5 0-75.5 25.55-75.5 66.66 0 5.56 1.1 14.45 2.2 21.12-38.9 1.11-75.6-26.67-96.7-53.33v-304.46c0-26.67 18.9-36.67 97.8-38.89v-40h-307.8zm557.8 656.69c0 50 32.2 84.44 81.1 84.44s81.1-32.21 81.1-81.11c0-50-32.2-83.33-81.1-83.33s-81.1 30-81.1 80m-63.4-656.69c63.4 1.11 80 12.22 80 38.89v333.35c0 33.32-15.5 53.32-80 54.44v40l212.3 8.88v-436.67c0-26.67 13.3-37.78 77.7-38.89v-40h-290zm353.3 210.01c0 165.55 113.4 273.34 264.5 273.34 140 0 194.4-71.11 194.4-127.79 0-45.55-26.6-78.88-71.1-78.88-50 0-75.5 28.88-75.5 67.77 0 27.79 18.9 53.34 33.3 62.23-11.1 17.78-40 34.44-76.7 34.44-76.6 0-128.9-68.88-128.9-213.34 0-123.33 54.5-207.78 162.3-207.78 56.6 0 104.4 30 142.2 76.67l27.8-23.33c-48.9-74.45-113.4-124.45-217.8-124.45-157.8 0-254.5 104.45-254.5 261.12m593.4-97.79v268.9c0 34.44-14.5 47.78-78.9 50v40l211.1 4.44v-328.89c0-76.67 30-106.67 92.2-106.67 42.2 0 67.8 12.22 98.9 30v311.12c0 34.44-17.8 46.67-78.9 48.89v40.01l211.1 5.54v-434.45c0-30 15.6-38.89 78.9-41.11v-40h-208.9v73.34c-52.2-46.67-111.1-82.23-182.2-82.23-88.9 0-143.3 57.78-143.3 161.11m582.1-112.22c63.4 1.11 77.8 12.22 77.8 38.89v592.24c0 33.33-16.6 53.33-82.2 54.45v40l214.4 8.89v-695.58c0-26.67 13.4-37.78 77.8-38.89v-40h-287.8zm422.2 101.11v310.01h-95.5v42.23l97.8 20v138.89l130 43.34v-184.46h163.3v-57.77h-163.3v-305.57c0-55.56 22.2-84.44 64.4-84.44 31.1 0 58.9 25.55 83.4 66.66l32.2-21.11c-38.9-78.89-90-117.78-170-117.78-83.4 0-142.3 43.33-142.3 150m416.7 11.11v268.9c0 34.44-14.4 47.78-78.9 50v40l211.1 4.44v-328.89c0-76.67 30-106.67 92.2-106.67 42.3 0 67.8 12.22 98.9 30v311.12c0 34.44-17.7 46.67-78.9 48.89v40.01l211.2 5.54v-434.45c0-30 15.5-38.89 78.9-41.11v-40h-208.9v73.34c-52.3-46.67-111.2-82.23-182.3-82.23-88.9 0-143.3 57.78-143.3 161.11m590-112.22c63.3 1.11 77.7 12.22 77.7 38.89v333.35c0 33.32-14.4 53.32-77.7 54.44v40l207.7 8.88v-90c38.9 50 91.2 93.34 150 93.34 63.4 0 94.5-41.11 94.5-88.89 0-46.66-30-81.11-72.2-81.11-45.6 0-75.6 25.55-75.6 66.66 0 5.56 1.1 14.45 2.2 21.12-38.9 1.11-75.5-26.67-96.6-53.33v-304.46c0-26.67 18.9-36.67 97.7-38.89v-40h-307.7zm814.4 76.67v143.34c-128.9-21.11-167.8-45.56-167.8-113.34 0-48.89 26.7-83.33 76.7-83.33 37.7 0 71.1 25.55 91.1 53.33m-310 1.11c0 44.44 23.3 93.33 70 118.89 81.1 44.45 208.9 51.11 240 64.45v50c0 95.56-30 124.44-93.4 124.44-25.5 0-44.4-6.66-58.8-17.77 7.7-16.67 14.4-34.44 14.4-54.44 0-41.11-28.9-72.23-76.7-72.23-46.6 0-72.2 30-72.2 71.12 0 66.66 87.8 116.66 224.5 116.66 131.1 0 192.2-60 192.2-178.89v-227.79c0-54.44 12.2-65.55 78.9-54.44l10-31.11c-41.1-22.23-75.6-34.45-116.7-34.45-67.8 0-82.2 25.55-95.6 78.89h-4.4c-44.4-46.67-102.2-81.11-166.7-81.11-102.2 0-145.5 65.55-145.5 127.78m549.9-77.78c63.4 1.11 77.8 12.22 77.8 38.89v592.24c0 33.33-16.6 53.33-82.2 54.45v40l214.5 8.89v-695.58c0-26.67 13.3-37.78 77.7-38.89v-40h-287.8zm966.7 518.9c0 60-28.9 97.79-84.5 97.79-41.1 0-77.7-36.67-77.7-93.34 0-48.89 28.9-88.89 85.5-143.34 58.9 43.34 76.7 82.23 76.7 138.89m-248.9-364.45c0-82.23 53.3-136.67 131.1-136.67 50 0 86.7 22.22 126.7 65.56-44.5 72.22-106.7 147.78-177.8 210-55.6-36.66-80-78.89-80-138.89m513.3 203.34c60 0 92.3-40 92.3-84.45 0-40-28.9-72.22-71.2-72.22-38.8 0-68.8 31.1-68.8 65.56 0 6.66 1.1 12.22 4.4 17.77l-4.4 5.56c-34.5-21.11-68.9-68.89-100-130 54.4-101.12 91.1-137.79 133.3-137.79 33.3 0 48.9 8.89 82.2 36.67l24.5-33.34c-66.7-60-114.5-83.33-164.5-83.33-86.7 0-122.2 35.55-162.2 105.56-51.1-63.34-116.7-105.56-200-105.56-154.5 0-218.9 88.89-218.9 175.56 0 97.78 72.2 163.34 191.1 201.12-52.2 60-83.3 100-83.3 161.12 0 105.56 91.1 180 210 180 116.6 0 178.9-67.78 178.9-140 0-71.12-47.8-118.9-155.6-165.57 54.5-47.77 103.3-101.11 138.9-157.78 50 97.78 107.8 161.12 173.3 161.12M3557.18 1628.12c87.78 3.34 104.45 13.34 104.45 47.79v550.02c0 34.44-16.67 44.44-104.45 47.77v42.23h621.13l6.66-233.34-46.66-1.12c-41.11 124.46-72.23 187.79-202.24 187.79h-121.11v-286.67h41.11c76.67 0 104.46 8.88 137.79 116.67h40v-282.24h-40c-33.33 107.78-61.12 117.78-137.79 117.78h-41.11v-301.12h115.57c154.44 0 194.44 72.23 238.89 207.78l47.78-1.1-8.89-255.57h-651.13zm746.64-3.33c63.33 1.12 77.77 12.23 77.77 38.89v333.35c0 33.33-14.44 53.33-77.77 54.44v40l207.78 8.89v-82.22c56.66 44.45 124.44 85.56 196.67 85.56 87.78 0 131.11-56.67 131.11-160.01v-280.01c0-26.66 13.33-37.77 77.79-38.89v-40h-273.34v40c47.77 1.12 63.33 12.23 63.33 38.89v246.68c0 76.67-26.67 106.67-85.56 106.67-42.22 0-77.78-17.78-107.78-36.67v-316.68c0-26.66 15.56-37.77 62.22-38.89v-40h-272.22zm693.31 365.57c-20 47.78-34.44 61.11-86.67 68.9v38.88h285.57v-38.88c-48.9-4.46-68.9-14.46-68.9-35.56 0-5.56 1.11-11.11 4.44-20l113.34-295.57h4.45l93.34 241.12c10 26.67 14.44 44.45 14.44 58.89 0 27.78-17.78 44.45-65.56 51.12v38.88h210v-38.88c-34.44-4.46-63.33-27.79-83.33-76.67l-168.89-404.47h-86.67zm589.97 291.12c0 50 32.23 84.45 81.11 84.45 48.89 0 81.12-32.22 81.12-81.12 0-50-32.23-83.33-81.12-83.33-48.88 0-81.11 30-81.11 80m-63.34-656.69c63.34 1.12 80.01 12.23 80.01 38.89v333.35c0 33.33-15.56 53.33-80.01 54.44v40l212.24 8.89v-436.68c0-26.66 13.33-37.77 77.77-38.89v-40h-290.01zm351.1 0c63.33 1.12 77.78 12.23 77.78 38.89v333.35c0 33.33-14.45 53.33-77.78 54.44v40l207.79 8.89v-90c38.88 50 91.11 93.34 150 93.34 63.34 0 94.44-41.11 94.44-88.9 0-46.66-30-81.11-72.22-81.11-45.55 0-75.55 25.56-75.55 66.67 0 5.56 1.1 14.44 2.21 21.11-38.88 1.12-75.55-26.67-96.67-53.33v-304.46c0-26.66 18.89-36.66 97.79-38.89v-40h-307.79zm881.1 217.79c0 153.34-42.23 222.23-124.46 222.23-81.11 0-115.55-68.89-115.55-222.23 0-154.45 43.34-224.46 125.55-224.46 80.01 0 114.46 70.01 114.46 224.46m-382.24-2.22c0 161.11 102.23 267.78 263.34 267.78 165.57 0 261.12-102.22 261.12-263.34 0-162.22-101.11-271.12-261.12-271.12-167.78 0-263.34 104.45-263.34 266.68m599.97-215.57c63.34 1.12 77.78 12.23 77.78 38.89v333.35c0 33.33-14.44 53.33-77.78 54.44v40l207.78 8.89v-82.22c56.67 44.45 124.46 85.56 196.67 85.56 87.79 0 131.13-56.67 131.13-160.01v-280.01c0-26.66 13.33-37.77 77.77-38.89v-40H7313.7v40c47.78 1.12 63.34 12.23 63.34 38.89v246.68c0 76.67-26.67 106.67-85.57 106.67-42.21 0-77.77-17.78-107.77-36.67v-316.68c0-26.66 15.56-37.77 62.22-38.89v-40h-272.23zm1004.44 0c47.77 1.12 56.66 12.23 56.66 38.89v246.68c0 76.67-28.89 106.67-87.78 106.67-41.11 0-67.78-17.78-97.78-36.67v-316.68c0-26.66 8.89-37.77 56.67-38.89v-40h-266.67v40c63.33 1.12 77.77 12.23 77.77 38.89v333.35c0 33.33-14.44 53.33-77.77 54.44v40l207.78 8.89v-82.22c56.66 44.45 115.56 85.56 187.78 85.56 67.78 0 108.89-35.56 124.45-98.9 57.78 54.46 125.55 98.9 195.56 98.9 87.78 0 131.12-56.67 131.12-160.01v-280.01c0-26.66 13.33-37.77 77.78-38.89v-40h-267.79v40c47.78 1.12 57.78 12.23 57.78 38.89v246.68c0 76.67-24.44 106.67-83.34 106.67-31.11 0-67.77-20-104.44-46.67 1.11-14.44 1.11-22.23 1.11-30v-276.68c0-26.66 11.11-37.77 62.22-38.89v-40h-251.11zm781.06 262.23 197.78 3.34c11.12 95.56-20 174.45-91.11 174.45-61.11 0-98.89-58.89-106.67-177.79m-141.11-52.22c0 164.45 102.22 273.34 255.56 273.34 154.45 0 228.9-122.22 220-261.12h-335.55v-6.66c0-118.9 53.33-201.12 157.77-201.12 58.9 0 108.9 35.55 152.23 91.11l27.78-23.33c-46.67-75.56-111.11-133.34-222.23-133.34-164.45 0-255.56 102.23-255.56 261.12m553.32-210.01c63.33 1.12 77.77 12.23 77.77 38.89v333.35c0 33.33-14.44 53.33-77.77 54.44v40l207.78 8.89v-82.22c56.66 44.45 124.44 85.56 196.67 85.56 87.78 0 131.11-56.67 131.11-160.01v-280.01c0-26.66 13.33-37.77 77.79-38.89v-40h-273.34v40c47.77 1.12 63.33 12.23 63.33 38.89v246.68c0 76.67-26.67 106.67-85.56 106.67-42.23 0-77.78-17.78-107.78-36.67v-316.68c0-26.66 15.55-37.77 62.22-38.89v-40H9171.4zm741.08 101.12v310.01h-95.56v42.22l97.79 20v138.9l129.99 43.33v-184.45h163.3v-57.78h-163.3v-305.56c0-55.56 22.2-84.45 64.5-84.45 31.1 0 58.8 25.55 83.3 66.66l32.2-21.1c-38.9-78.9-90-117.78-170-117.78-83.32 0-142.22 43.33-142.22 150m672.22-24.45v143.34c-128.9-21.11-167.8-45.55-167.8-113.34 0-48.88 26.7-83.33 76.7-83.33 37.8 0 71.1 25.55 91.1 53.33m-310 1.12c0 44.44 23.3 93.33 70 118.88 81.1 44.46 208.9 51.12 240 64.46v50c0 95.55-30 124.44-93.3 124.44-25.6 0-44.5-6.66-58.9-17.77 7.7-16.67 14.4-34.45 14.4-54.45 0-41.11-28.9-72.22-76.7-72.22-46.6 0-72.2 30-72.2 71.11 0 66.67 87.8 116.67 224.5 116.67 131.1 0 192.2-60 192.2-178.9v-227.78c0-54.44 12.2-65.56 78.9-54.44l10-31.12c-41.1-22.22-75.6-34.44-116.7-34.44-67.8 0-82.2 25.55-95.5 78.89h-4.5c-44.4-46.67-102.2-81.12-166.7-81.12-102.2 0-145.5 65.56-145.5 127.79m549.9-77.79c63.4 1.12 77.8 12.23 77.8 38.89v592.25c0 33.33-16.6 53.33-82.2 54.44v40l214.5 8.9v-695.59c0-26.66 13.3-37.77 77.7-38.89v-40h-287.8zm582.2 188.9h47.8c56.7-125.56 132.2-198.9 224.5-198.9 96.6 0 136.6 65.56 136.6 124.46 0 76.66-48.9 105.55-176.6 147.77-112.3 35.57-223.4 78.9-223.4 215.57 0 140 105.6 231.12 254.5 231.12 58.9 0 112.2-14.45 146.6-30.01l33.4 35.56h40v-222.23h-46.7c-44.4 104.45-107.8 168.9-188.9 168.9-67.8 0-117.8-44.45-117.8-116.67 0-75.56 54.5-100 176.7-138.9 102.2-33.33 211.1-76.67 211.1-214.45 0-123.33-73.3-248.89-261.1-248.89-60 0-128.9 12.22-172.2 33.33l-42.2-37.78h-42.3zm602.2 21.11c0 165.56 113.3 273.34 264.5 273.34 140 0 194.4-71.11 194.4-127.78 0-45.56-26.7-78.89-71.1-78.89-50 0-75.6 28.89-75.6 67.78 0 27.78 18.9 53.34 33.4 62.22-11.1 17.79-40 34.45-76.7 34.45-76.7 0-128.9-68.89-128.9-213.34 0-123.33 54.5-207.79 162.2-207.79 56.7 0 104.5 30 142.3 76.67l27.8-23.33c-48.9-74.45-113.4-124.45-217.8-124.45-157.8 0-254.5 104.45-254.5 261.12m592.2 446.68c0 50 32.2 84.45 81.1 84.45s81.1-32.22 81.1-81.12c0-50-32.2-83.33-81.1-83.33s-81.1 30-81.1 80m-63.3-656.69c63.3 1.12 80 12.23 80 38.89v333.35c0 33.33-15.6 53.33-80 54.44v40l212.2 8.89v-436.68c0-26.66 13.3-37.77 77.8-38.89v-40h-290zm494.4 262.23 197.8 3.34c11.1 95.56-20 174.45-91.1 174.45-61.1 0-98.9-58.89-106.7-177.79m-141.1-52.22c0 164.45 102.2 273.34 255.6 273.34 154.4 0 228.9-122.22 220-261.12h-335.6v-6.66c0-118.9 53.3-201.12 157.8-201.12 58.9 0 108.9 35.55 152.2 91.11l27.8-23.33c-46.7-75.56-111.1-133.34-222.2-133.34-164.5 0-255.6 102.23-255.6 261.12m553.3-210.01c63.3 1.12 77.8 12.23 77.8 38.89v333.35c0 33.33-14.5 53.33-77.8 54.44v40l207.8 8.89v-82.22c56.7 44.45 124.4 85.56 196.7 85.56 87.7 0 131.1-56.67 131.1-160.01v-280.01c0-26.66 13.3-37.77 77.8-38.89v-40h-273.4v40c47.8 1.12 63.4 12.23 63.4 38.89v246.68c0 76.67-26.7 106.67-85.6 106.67-42.2 0-77.8-17.78-107.8-36.67v-316.68c0-26.66 15.6-37.77 62.2-38.89v-40h-272.2zm667.8 210.01c0 165.56 113.3 273.34 264.4 273.34 140 0 194.5-71.11 194.5-127.78 0-45.56-26.7-78.89-71.2-78.89-50 0-75.5 28.89-75.5 67.78 0 27.78 18.9 53.34 33.3 62.22-11.1 17.79-40 34.45-76.6 34.45-76.7 0-128.9-68.89-128.9-213.34 0-123.33 54.4-207.79 162.2-207.79 56.7 0 104.4 30 142.2 76.67l27.8-23.33c-48.9-74.45-113.3-124.45-217.8-124.45-157.8 0-254.4 104.45-254.4 261.12m674.4 52.22 197.8 3.34c11.1 95.56-20 174.45-91.1 174.45-61.2 0-98.9-58.89-106.7-177.79m-141.1-52.22c0 164.45 102.2 273.34 255.5 273.34 154.5 0 228.9-122.22 220-261.12h-335.5v-6.66c0-118.9 53.3-201.12 157.8-201.12 58.8 0 108.9 35.55 152.2 91.11l27.8-23.33c-46.7-75.56-111.2-133.34-222.3-133.34-164.4 0-255.5 102.23-255.5 261.12m571.1-83.34h42.2c48.9-82.22 112.2-130 171.1-130 57.8 0 84.5 31.12 84.5 68.89 0 47.78-36.7 70-135.6 98.9-115.6 33.33-160 71.11-160 147.78 0 102.23 81.1 170 200 170 37.8 0 84.4-14.44 108.9-31.11l24.4 31.11h40v-156.67h-43.3c-43.3 66.67-88.9 111.11-142.2 111.11-46.7 0-80-27.77-80-68.88 0-45.56 41.1-63.34 120-84.46 114.4-30 171.1-71.11 171.1-156.67 0-98.88-75.6-175.55-196.7-175.55-41.1 0-101.1 16.66-130 34.44l-33.3-34.44h-41.1zM12161.4 746.25c0-137.219-59.1-217.828-150.6-217.828-103.5 0-178.6 100.117-178.6 249.16 0 134.328 64.3 220.109 156.3 220.109h.6c104.7 0 172.3-93.82 172.3-251.441m-155.8 305.26h-.5c-204.9 0-312.1-145.248-312.1-288.748 0-164.602 129.5-288.742 301.2-288.742 177.6 0 306.4 124.32 306.4 295.582 0 160.707-126.8 281.908-295 281.908M9471.8 746.25c0-137.219-59.13-225.879-150.64-225.879-103.47 0-178.57 108.168-178.57 257.211 0 134.328 64.29 228.148 156.34 228.148h.58c104.66 0 172.29-101.859 172.29-259.48m-155.77 305.26h-.57c-204.89 0-312.1-145.248-312.1-288.748 0-164.602 129.52-288.742 301.27-288.742 177.55 0 306.41 124.32 306.41 295.582 0 160.707-126.82 281.908-295.01 281.908m1693.07-335.83V505.09l-21.9-4.918c-51.6-11.652-115.9-26.152-175.6-26.152-205.2 0-337.8 111.332-337.8 283.621 0 201.91 174.9 293.869 337.5 293.869 73.4 0 179.4-29.17 179.4-29.17V890.66s-50.9 106.91-175.5 106.91c-83.6 0-159.1-48.84-188-133.519-9.6-29.621-14.7-61.512-14.7-92.172 0-174.527 104.3-244.598 207.6-244.598 15.5 0 36.3 2.508 48.2 9.578 12 7.411 18.1 21.903 18.1 43.039v116.383c0 71.778-51.7 92.989-51.7 92.989h211.9s-37.5-9.348-37.5-73.59m2484.7 0V505.09l-21.9-4.918c-51.7-11.652-115.9-26.152-175.6-26.152-205.2 0-337.8 111.332-337.8 283.621 0 201.91 174.9 293.869 337.4 293.869 73.5 0 179.5-29.17 179.5-29.17V890.66s-50.9 106.91-175.5 106.91c-83.6 0-159.2-48.84-188-133.519-9.6-29.621-14.7-61.512-14.7-92.172 0-174.527 104.3-244.598 207.6-244.598 15.5 0 36.3 2.508 48.2 9.578 12 7.411 18.1 21.903 18.1 43.039v116.383c0 71.778-51.8 92.989-51.8 92.989h212s-37.5-9.348-37.5-73.59m-8000.27 323.29c33.09-13.83 25.56-57.161 11.97-91.322-6.74-18.847-83.7-203.257-119.24-288.5-13.29 36.704-99.88 280.231-104.45 293.332-11.04 31.102-10.06 54.44 17.36 86.49h-221.55c47.28-29.3 60.05-57.29 87.22-128.118 45.91-118.403 109.2-286.922 159.19-420.512l1.2-3.211h58.64l175.52 426.512c19.26 47.578 53.69 104.999 93.37 125.329zm572.01-466.591c-28.09-31.758-102.26-29.707-112.95-29.707-36.25 0-55.95 1.117-69.98 7.578-14.87 6.25-17.49 25.762-17.49 64.41v120.301h67.87c61.3 0 103.27-3.441 115.63-33.231v128.801c-11.7-29.633-51.76-34.89-115.63-34.89h-67.87v177.23c0 6.149 4.98 11.141 11.14 11.141h101.11c50.19 0 74.83-8.364 95.35-33.602s33.74-63.238 33.74-63.238v151.798h-411.98c12.96-8.66 46.78-39.419 46.78-124.888l-.12-299.172c0-105.73-51.66-127.781-51.66-127.781h427.05v162.582s-22.9-45.57-50.99-77.332m5350.26-29.707c-36.2 0-55.9 1.117-70 7.578-14.8 6.25-17.5 25.75-17.5 64.41v120.301h67.9c61.3 0 103.3-3.441 115.6-33.231v128.801c-11.7-29.633-51.7-34.89-115.6-34.89h-67.9v164.238c0 24.133 0 24.133 30.4 24.133h81.9c50.2 0 74.8-8.364 95.3-33.602 20.6-25.238 33.8-63.238 33.8-63.238v151.798h-416c13-8.66 46.8-39.419 46.8-124.888l-.2-299.172c0-105.73-51.6-127.781-51.6-127.781h431.1v162.582s-22.9-45.57-51-77.332c-28.1-31.758-102.3-29.707-113-29.707m2442.6-55.543s-51.7 22.051-51.7 127.781l-.1 299.172c0 85.469 33.8 116.228 46.8 124.888h-215c12.9-8.66 46.7-39.419 46.7-124.888l-.1-299.172c0-105.73-51.6-127.781-51.6-127.781zm-9148.47 0s-51.66 22.051-51.66 127.781l-.12 299.172c0 85.469 33.82 116.228 46.78 124.888h-154.35c12.97-8.66 46.79-39.419 46.79-124.888l-.09-224.191-306.91 349.079h-134.94c12.97-8.66 46.79-39.419 46.79-124.888l-.12-299.172c0-105.73-51.67-127.781-51.67-127.781h165.15s-51.66 22.051-51.66 127.781l-.1 262.832L4591 487.129zm2822.22 0s-51.66 22.051-51.66 127.781l-.12 299.172c0 85.469 33.82 116.228 46.79 124.888h-212.64c12.97-8.66 46.79-39.419 46.79-124.888l-.12-299.172c0-105.73-51.67-127.781-51.67-127.781zm-2497.29 0s-51.67 22.051-51.67 127.781l-.12 299.172c0 85.469 33.82 116.228 46.79 124.888h-213.44c12.97-8.66 46.79-39.419 46.79-124.888l-.12-299.172c0-105.73-51.67-127.781-51.67-127.781zm9073.54 213.562c33.3 80.731 70.9 171.039 70.9 171.039s32.6-89.89 62-171.039zm382.9-213.562c-47.3 29.312-60 57.293-87.2 128.133-45.9 118.386-109.2 286.91-159.2 420.508l-1.2 3.2h-66.7l-175.5-426.501c-19.3-47.59-53.7-105.008-93.4-125.34h162.5c-33.1 13.832-25.6 57.16-12 91.332 2.4 6.598 11.7 29.559 24.1 59.848h181.1c12.6-34.86 21.9-60.668 23.3-64.688 11.1-31.101 10.1-54.441-17.3-86.492zM7035.46 827.16c-78.7 36.969-105.99 58.719-107.61 104.922-1.32 37.918 24.39 74.108 80.79 74.108 82.97 0 126.09-45.749 150.83-96.358l-.17 118.138c-14.03 4.62-84.45 22.53-141.64 22.53-120.14 0-200.8-70.539-200.8-164.75 0-92.961 73.57-132.93 165.21-176.828 65.82-32.34 102.35-53.852 102.35-103.563 0-46.379-26.38-82.07-81.88-82.07-90.95 0-156.32 83.82-177.22 137.691l2.77-140.488c10.18-5.203 50.17-25.172 78.44-32.594 25.08-6.589 54.33-12.707 84.34-12.707 120.58 0 212.8 59.059 212.8 171.68 0 83.801-75.46 137.551-168.21 180.289m2901.83-340.031s-51.66 22.051-51.66 127.781v117.641h67.87c61.3 0 103.3-3.442 115.6-33.231v131.211c-11.7-29.633-51.7-34.89-115.6-34.89h-67.87v165.851c0 24.129 0 24.129 30.39 24.129h81.86c50.22 0 74.82-8.359 95.32-33.601 20.6-25.239 33.8-63.239 33.8-63.239v150.189h-413.62c12.97-8.66 46.79-39.419 46.79-124.888l-.13-299.172c0-105.73-51.66-127.781-51.66-127.781zm-2015.28 472.75c0 24.133 0 24.133 30.39 24.133h25.87c50.2 0 74.83-8.364 95.36-33.602 20.52-25.238 33.74-63.238 33.74-63.238v151.798h-494.69V887.172s13.21 38 33.74 63.238c20.52 25.238 45.16 33.602 95.35 33.602h25.87c30.39 0 30.39 0 30.39-24.133V614.91c0-105.73-51.66-127.781-51.66-127.781h227.3s-51.66 22.051-51.66 127.781zm-3963.52-225.84.12 180.043c0 85.469-33.82 116.228-46.79 124.888h159.56c-12.97-8.66-46.79-39.419-46.79-124.888l.12-177.242s24.81-258.801-213.36-262.942c0 0-246.38-13.527-246.38 194l.12 246.184c0 85.469-33.82 116.228-46.78 124.888h213.43c-12.96-8.66-46.78-39.419-46.78-124.888l.12-209.402c0-175.821 133.26-171.461 133.26-171.461s140.15-26 140.15 200.82m4524.92 303.751s64.61-34.34 40.9-84.911l-81.7-160.797-85.97 156.207c-30.18 55.641 25.42 89.501 25.42 89.501h-236.48s50.39-26.7 89.61-93.31l122.64-210.531V614.91c0-105.73-51.66-127.781-51.66-127.781h224.08s-51.66 22.051-51.66 127.781v125.531l102.99 192.969c38.92 75.17 105.52 104.38 105.52 104.38zM6658.16 611.16c-24.36 40.039-61.4 99.879-79.7 133.711 39.29 16.371 99.12 54.449 99.12 134.449v.141c.3 3.937.49 7.949.49 12.098 0 48.25-20.82 89.16-58.68 115.231-34.95 23.46-77.75 32.18-157.96 32.18h-217.84c12.99-8.66 46.85-39.419 46.85-124.888l-.12-299.172c0-105.73-51.73-127.781-51.73-127.781h223.59s-51.73 22.051-51.73 127.781v104.738h17.01c25.19 0 39.64-8.757 53.32-32.25 8.5-15.027 16.66-30.078 24.61-44.707 15.6-28.742 35.74-67.062 50.43-89.531 34.7-52.949 62.7-75.988 169.1-72.578 0 0 18.13.637 31.96 1.816 0 0-36.46 26.454-98.72 128.762m-109.23 268.43c0-42.352-12.51-72.848-39.37-95.981l-.04-.039c-16.09-14.109-43.2-20.98-82.89-20.98h-16.18v198.5c0 15.75 1.63 23.359 5.61 26.949 6.51 5.313 18.89 8 36.82 8 46.43 0 96.05-30.59 96.05-116.449m6268.67-268.43c-24.4 40.039-61.4 99.879-79.7 133.711 39.2 16.371 99.1 54.449 99.1 134.449v.141c.3 3.937.5 7.949.5 12.098 0 48.25-20.9 89.16-58.7 115.231-35 23.46-77.8 32.18-158 32.18H12403c13-8.66 46.8-39.419 46.8-124.888l-.1-299.172c0-105.73-51.7-127.781-51.7-127.781h223.6s-51.8 22.051-51.8 127.781v104.738h17.1c25.1 0 39.6-8.757 53.3-32.25 8.5-15.027 16.6-30.078 24.6-44.707 15.6-28.742 35.7-67.062 50.4-89.531 34.7-52.949 62.7-75.988 169.1-72.578 0 0 18.1.637 32 1.816 0 0-36.5 26.454-98.7 128.762m-109.3 268.43c0-42.352-12.5-72.848-39.3-95.981l-.1-.039c-16.1-14.109-43.2-20.98-82.9-20.98h-16.2v198.5c0 15.75 1.7 23.359 5.7 26.949 6.5 5.313 18.8 8 36.8 8 46.4 0 96-30.59 96-116.449" style="fill:#fff;fill-opacity:1;fill-rule:nonzero;stroke:none" transform="matrix(.13333 0 0 -.13333 0 529.12)"/></svg>